Simulation
nRows=36
nColumns=15
endheader
time  TH_x TH_y TH_z SC_y  SC_z  SC_x  AC_y  AC_z  AC_x  GH_y  GH_z  GH_yy  EL_x  PS_y
0.0  0.000000  0.000000  0.000000  -40.97484877243665  6.293857566463187  5.290427962726946  44.30059999591454  6.8249467726849105  -0.031193219308485478  175.9017342735901  6.808067061048471  -150.66285833266065  22.66591050403923  120.000000
0.05745  0.000000  0.000000  0.000000  -38.80039223601634  5.734724539969662  3.0570672003873183  43.439340697244056  7.098361467598464  0.176266930431803  171.5421809691761  3.514322861883573  -147.64330112893575  22.077422316513093  120.000000
0.1149  0.000000  0.000000  0.000000  -36.794416126621584  5.0302681866810515  0.8205880712589171  42.664067061390234  7.174695164976918  0.4232321275811473  118.68141165976114  0.6744590656222353  -96.10201752069968  21.67321675886573  120.000000
0.17235  0.000000  0.000000  0.000000  -35.06628045518637  4.236276653847798  -1.320999319750668  42.01614513508344  7.104622374812481  0.7281485329120234  15.620382895324191  2.808307429177342  5.652779034770698  21.531333136244466  120.000000
0.2298  0.000000  0.000000  0.000000  -33.67359831896988  3.428200150237883  -3.298699087804353  41.51933670572659  6.9727054207718036  1.1040734779807586  9.900835812830257  5.749961904380082  10.072256441097347  21.660296039263066  120.000000
0.28725  0.000000  0.000000  0.000000  -32.62504988168773  2.689239480268003  -5.080439850358788  41.16335458343877  6.878144218833349  1.5637925935893429  8.055436287618862  8.70495325382723  10.605074028509785  21.99571758602447  120.000000
0.3447  0.000000  0.000000  0.000000  -31.911371814799082  2.1046365088474337  -6.661026811745121  40.90926652585623  6.903333206394939  2.119405221793507  6.789175567138269  11.713094877625531  10.514907586463002  22.43697083703221  120.000000
0.40215  0.000000  0.000000  0.000000  -31.5204310892105  1.74323466028247  -8.024620308563623  40.71464106218529  7.078746906503587  2.756942686649644  5.615800377006647  14.831947916898047  10.255427441797845  22.872993761238025  120.000000
0.4596  0.000000  0.000000  0.000000  -31.440001538493117  1.6542763106953355  -9.130562623947002  40.5468795620796  7.376324018648818  3.435056783688311  4.496598491196898  18.107600647629457  9.84556809549168  23.21082805247552  120.000000
0.51705  0.000000  0.000000  0.000000  -31.65370597647653  1.867100623061068  -9.934209248491449  40.39027927619635  7.736714897637876  4.114585186404722  3.482033369480217  21.55319787037171  9.239334345095333  23.38915475880008  120.000000
0.5745  0.000000  0.000000  0.000000  -32.14260020927242  2.3907688185470413  -10.413731205070805  40.249174060071496  8.103221297508096  4.784525224558284  2.6372426720400224  25.1411772103375  8.401398404416906  23.38651142055306  120.000000
0.63195  0.000000  0.000000  0.000000  -32.893719971396806  3.1994452552737895  -10.599982406871137  40.14739409223136  8.455979720371007  5.477219745591509  2.0276768482409877  28.818272068331133  7.311289983444287  23.213216206284077  120.000000
0.6894  0.000000  0.000000  0.000000  -33.90503584834185  4.235120920151202  -10.547899865178849  40.12600417739953  8.796432343164458  6.237272039318108  1.7216894522019066  32.5260392835854  5.944581193865887  22.899044890257574  120.000000
0.74685  0.000000  0.000000  0.000000  -35.178201521307386  5.416962598075312  -10.29429077791496  40.233618775596845  9.128500122648079  7.083628056180351  1.7666823438331989  36.20928277875228  4.282655946199971  22.481126497366812  120.000000
0.8043  0.000000  0.000000  0.000000  -36.70618857195268  6.658472349501924  -9.860158701627121  40.507566560136425  9.462720312650642  8.008530701760126  2.171730516871179  39.81571540744606  2.321266214373427  21.996804186049747  120.000000
0.86175  0.000000  0.000000  0.000000  -38.461430116391185  7.878327845704015  -9.254858441685425  40.961443891606606  9.817786504114304  8.978696402348676  2.9003413959809463  43.29838327568671  0.08022139928722287  21.48084452313327  120.000000
0.9192  0.000000  0.000000  0.000000  -40.389173165729034  9.010853155008272  -8.482074009077738  41.57685592110134  10.214341966617557  9.94332180133854  3.876491673243937  46.616632317256105  -2.3909987211067154  20.962593415306177  120.000000
0.97665  0.000000  0.000000  0.000000  -42.40573767205202  10.013154057211406  -7.5467217541800595  42.30375849461937  10.665352956411043  10.846063761127068  4.999021155818885  49.73664593452667  -5.008111682755622  20.463644372244293  120.000000
1.0341  0.000000  0.000000  0.000000  -44.40075873853787  10.870607678764431  -6.458731574611191  43.07111425055138  11.167401364559309  11.637528458693662  6.1648314270501885  52.62747176655569  -7.656564100650951  19.99575946822084  120.000000
1.09155  0.000000  0.000000  0.000000  -46.24861672000985  11.59256496168661  -5.22961521596454  43.79967768297599  11.69919301377176  12.283920096566382  7.284597852964951  55.258526847062335  -10.202042988801853  19.560289725993112  120.000000
1.149  0.000000  0.000000  0.000000  -47.84964590979586  12.20978448598459  -3.873085237471661  44.417859977110204  12.226076515279969  12.769362892876869  8.29460434304731  57.60161898481952  -12.513698121367403  19.153214701018356  120.000000
1.20645  0.000000  0.000000  0.000000  -49.163358077426835  12.75762622714101  -2.4101060246532793  44.877668299372935  12.710886503201039  13.094285961005959  9.159066540290635  59.63534162620203  -14.488317180905932  18.769829414598348  120.000000
1.2639  0.000000  0.000000  0.000000  -50.20668290471071  13.254439869160189  -0.8736432573395726  45.169881876447285  13.125191184145296  13.271249749381793  9.871695053114971  61.34471228982127  -16.075544136488343  18.408814975573637  120.000000
1.32135  0.000000  0.000000  0.000000  -51.0249397903743  13.694679342321397  0.6825783337542124  45.325249104847146  13.452276608992104  13.32214104403523  10.451184004890584  62.72256578500717  -17.287622327485316  18.07374587154559  120.000000
1.3788  0.000000  0.000000  0.000000  -51.660848889817835  14.056449927342925  2.1787057770315847  45.391587983827975  13.685829557509178  13.27172097756937  10.926756462932063  63.77105073108631  -18.186082938064395  17.773538630876565  120.000000
1.43625  0.000000  0.000000  0.000000  -52.134674749346104  14.31579029222614  3.508874410465725  45.414965862934444  13.824922705700288  13.140153255824556  11.322320835318818  64.50497789650011  -18.85536374105328  17.517841726194025  120.000000
1.4937  0.000000  0.000000  0.000000  -52.438609115131534  14.450963552366435  4.550787193062375  45.42841952700871  13.868282485676776  12.94274319533195  11.647854222789169  64.95500766298859  -19.374503109170288  17.31550102999237  120.000000
1.55115  0.000000  0.000000  0.000000  -52.54206874529753  14.444589751450954  5.17397284572837  45.45416956283851  13.808822389535463  12.688051875860305  11.892914971276259  65.17750145691544  -19.79140338978679  17.17263818579981  120.000000
1.6086  0.000000  0.000000  0.000000  -52.40330436424472  14.275225666340623  5.25321944903648  45.50918550612573  13.630982881689153  12.382940776992976  12.023469440975786  65.25912045005973  -20.10712807832294  17.09239166598853  120.000000
1.66605  0.000000  0.000000  0.000000  -51.99829433081817  13.928870268418624  4.716561720586821  45.58966477399986  13.339549327715062  12.054196565011887  12.014116876107163  65.22457797407529  -20.31138646832418  17.074835000886868  120.000000
1.7235  0.000000  0.000000  0.000000  -51.33827771409216  13.415226634248631  3.586111592937802  45.65315333780644  12.991632442713465  11.762233547499294  11.879756163092553  64.95403727666263  -20.426436218420402  17.115274815408668  120.000000
1.78095  0.000000  0.000000  0.000000  -50.44453981343854  12.749694663774886  1.9412840837396599  45.64351374500174  12.676668318198299  11.56891614142041  11.64385322499203  64.28799765481799  -20.480921139532676  17.198482007770007  120.000000
1.8384  0.000000  0.000000  0.000000  -49.32677907777914  11.94335939033996  -0.12278726703924638  45.512571142997835  12.484514256555322  11.507438577559409  11.31204570463274  63.124899893291364  -20.489204335422556  17.29820141807874  120.000000
1.89585  0.000000  0.000000  0.000000  -47.99482222934354  11.00703973547634  -2.499678148808303  45.222183771609714  12.490916649811563  11.580853672961883  10.884740050503796  61.41727281754442  -20.46601691967398  17.384602271921047  120.000000
1.9533  0.000000  0.000000  0.000000  -46.476880710564146  9.95540103713443  -5.079429140075224  44.75050880855091  12.741842643671431  11.766441318772008  10.366956022201212  59.16935013364028  -20.432897331516546  17.43242086783473  120.000000
2.01075  0.000000  0.000000  0.000000  -44.83713707490554  8.80764288444717  -7.752295819197637  44.097876239520254  13.243649439411765  12.02905438623426  9.776701719549841  56.432146542440506  -20.418375280068116  17.428902827670342  120.000000
